HIERARCHY
ROOT Hips
{
 OFFSET 0.000000 0.000000 0.000000
 CHANNELS 6 Xposition Yposition Zposition Yrotation Xrotation Zrotation
 JOINT Chest
 {
  OFFSET 0.000000 9.585900 0.002600
  CHANNELS 3 Yrotation Xrotation Zrotation
  JOINT Chest2
  {
   OFFSET 0.000000 9.601200 -0.005300
   CHANNELS 3 Yrotation Xrotation Zrotation
   JOINT Chest3
   {
    OFFSET 0.000000 9.561800 0.000000
    CHANNELS 3 Yrotation Xrotation Zrotation
    JOINT Chest4
    {
     OFFSET 0.000000 9.552100 0.000000
     CHANNELS 3 Yrotation Xrotation Zrotation
     JOINT Neck
     {
      OFFSET 0.000000 14.453000 0.000000
      CHANNELS 3 Yrotation Xrotation Zrotation
      JOINT Head
      {
       OFFSET 0.000000 8.936500 -0.011300
       CHANNELS 3 Yrotation Xrotation Zrotation
       End Site
       {
        OFFSET 0.000000 17.073600 -0.006000
       }
      }
     }
     JOINT RightCollar
     {
      OFFSET -2.921100 9.558500 0.000000
      CHANNELS 3 Yrotation Xrotation Zrotation
      JOINT RightShoulder
      {
       OFFSET -13.519700 0.000000 0.000000
       CHANNELS 3 Yrotation Xrotation Zrotation
       JOINT RightElbow
       {
        OFFSET 0.000000 -29.696600 0.000000
        CHANNELS 3 Yrotation Xrotation Zrotation
        JOINT RightWrist
        {
         OFFSET 0.000000 -24.004700 0.000000
         CHANNELS 3 Yrotation Xrotation Zrotation
         End Site
         {
          OFFSET 0.000000 -17.728500 0.000000
         }
        }
       }
      }
     }
     JOINT LeftCollar
     {
      OFFSET 2.921100 9.558500 0.000000
      CHANNELS 3 Yrotation Xrotation Zrotation
      JOINT LeftShoulder
      {
       OFFSET 13.519700 0.000000 0.000000
       CHANNELS 3 Yrotation Xrotation Zrotation
       JOINT LeftElbow
       {
        OFFSET 0.000000 -29.696600 0.000000
        CHANNELS 3 Yrotation Xrotation Zrotation
        JOINT LeftWrist
        {
         OFFSET 0.000000 -24.004700 0.000000
         CHANNELS 3 Yrotation Xrotation Zrotation
         End Site
         {
          OFFSET 0.000000 -17.728500 0.000000
         }
        }
       }
      }
     }
    }
   }
  }
 }
 JOINT RightHip
 {
  OFFSET -7.771700 -0.012900 -0.001300
  CHANNELS 3 Yrotation Xrotation Zrotation
  JOINT RightKnee
  {
   OFFSET 0.000000 -40.869800 0.001200
   CHANNELS 3 Yrotation Xrotation Zrotation
   JOINT RightAnkle
   {
    OFFSET 0.000000 -39.717900 0.002100
    CHANNELS 3 Yrotation Xrotation Zrotation
    JOINT RightToe
    {
     OFFSET 0.000000 -4.965400 11.033500
     CHANNELS 3 Yrotation Xrotation Zrotation
     End Site
     {
      OFFSET 0.000000 -1.423100 5.872300
     }
    }
   }
  }
 }
 JOINT LeftHip
 {
  OFFSET 7.771700 -0.012900 -0.001300
  CHANNELS 3 Yrotation Xrotation Zrotation
  JOINT LeftKnee
  {
   OFFSET 0.000000 -40.869800 0.001200
   CHANNELS 3 Yrotation Xrotation Zrotation
   JOINT LeftAnkle
   {
    OFFSET 0.000000 -39.717900 0.002100
    CHANNELS 3 Yrotation Xrotation Zrotation
    JOINT LeftToe
    {
     OFFSET 0.000000 -4.965400 11.033500
     CHANNELS 3 Yrotation Xrotation Zrotation
     End Site
     {
      OFFSET 0.000000 -1.423100 5.872300
     }
    }
   }
  }
 }
}
MOTION
Frames: 5
Frame Time: 0.008333
-19.086914 58.302263 71.514863 179.437015 -33.493218 -1.171693 1.279967 21.313418 4.258120 0.072878 2.900001 0.415055 0.129663 4.720971 0.678380 0.840127 18.238865 2.755710 1.795932 18.243167 -1.312985 3.731892 -1.851056 -3.003828 7.464365 -0.300129 -1.353186 19.195451 -24.242471 -18.743906 17.634144 -50.214525 14.283684 17.708061 1.064228 -33.109646 -9.542583 -5.688175 -5.857048 -10.046322 -40.266957 4.438325 153.578419 -56.010290 174.273560 -11.452274 -2.995853 28.596990 10.320622 -36.778201 -7.874053 -5.296758 66.990587 -5.161652 3.773014 6.553254 8.760564 -0.051947 0.088694 -0.021370 -6.509126 -42.981858 -0.949668 27.202701 59.158285 24.604739 -9.195503 34.829323 3.395196 0.293608 -17.348909 -5.355099
-19.089699 58.303037 71.514249 179.435922 -33.499594 -1.153564 1.277912 21.320202 4.240020 0.078463 2.900235 0.414581 0.124020 4.720882 0.678656 0.838684 18.238701 2.755885 1.797614 18.242485 -1.315021 3.734110 -1.850830 -3.004136 7.466301 -0.300306 -1.353757 19.198280 -24.238540 -18.738847 17.626409 -50.211786 14.281163 17.711962 1.062018 -33.112727 -9.534449 -5.683414 -5.851891 -10.045849 -40.270091 4.432802 153.580710 -56.010987 174.270477 -11.448723 -2.995658 28.598304 10.333644 -36.776180 -7.896918 -5.291177 67.006137 -5.164488 3.784765 6.549718 8.766977 -0.063839 0.083669 -0.020351 -6.498709 -42.973323 -0.965639 27.205607 59.156326 24.596545 -9.199995 34.819879 3.394746 0.300231 -17.339951 -5.354047
-19.088953 58.302545 71.515375 179.443695 -33.493936 -1.159968 1.276645 21.314526 4.244032 0.080383 2.900148 0.413129 0.124118 4.720610 0.680029 0.854392 18.238303 2.754625 1.787680 18.242229 -1.309091 3.729551 -1.851820 -3.003527 7.451844 -0.299838 -1.348427 19.187290 -24.241392 -18.732369 17.629438 -50.210395 14.280294 17.706962 1.054843 -33.116517 -9.549675 -5.676700 -5.837231 -10.011894 -40.271893 4.412112 153.571716 -56.009938 174.267510 -11.432785 -3.001257 28.596413 10.323862 -36.782247 -7.887266 -5.285535 67.005509 -5.168610 3.777521 6.550044 8.770617 -0.061969 0.085024 -0.020799 -6.509106 -42.977991 -0.961280 27.201203 59.150866 24.598406 -9.220398 34.824833 3.374635 0.314022 -17.340315 -5.352237
-19.087997 58.302125 71.516034 179.445442 -33.491922 -1.163108 1.289243 21.311908 4.248887 0.075045 2.899908 0.414945 0.133118 4.720645 0.678108 0.845353 18.237950 2.757998 1.790171 18.242305 -1.311729 3.724983 -1.854260 -2.999974 7.454825 -0.298020 -1.350980 19.172388 -24.244079 -18.722265 17.637958 -50.210375 14.274924 17.706411 1.055897 -33.109638 -9.543977 -5.663030 -5.820968 -9.987450 -40.283323 4.383175 153.556062 -56.007839 174.268718 -11.428305 -3.003179 28.596556 10.327203 -36.784912 -7.887052 -5.283046 67.005853 -5.162284 3.773321 6.552754 8.770237 -0.061627 0.084472 -0.022083 -6.513893 -42.979845 -0.956971 27.191674 59.151488 24.592624 -9.221981 34.824533 3.367140 0.317489 -17.338466 -5.351370
-19.090122 58.301773 71.516113 179.448791 -33.493843 -1.147762 1.287432 21.315147 4.233291 0.071831 2.898583 0.415267 0.133822 4.720493 0.678150 0.845728 18.238064 2.757520 1.792427 18.241466 -1.313643 3.720121 -1.855340 -2.996362 7.453462 -0.297827 -1.353952 19.165195 -24.244717 -18.712676 17.640338 -50.208715 14.275954 17.714051 1.056702 -33.102917 -9.546856 -5.660045 -5.815616 -9.965478 -40.283617 4.369907 153.542002 -56.005311 174.273305 -11.425083 -3.005126 28.595684 10.341570 -36.788435 -7.913659 -5.285818 67.022840 -5.172062 3.794805 6.551182 8.790254 -0.078464 0.076654 -0.031191 -6.503406 -42.980394 -0.978360 27.180317 59.153678 24.582705 -9.224380 34.826493 3.357167 0.323409 -17.338665 -5.348204
